<svg width="70" height="70" viewBox="0 0 70 70" fill="none" xmlns="http://www.w3.org/2000/svg">
<g filter="url(#filter0_dd_1104_8613)">
<path d="M15 13C15 8.58172 18.5817 5 23 5H47C51.4183 5 55 8.58172 55 13V37C55 41.4183 51.4183 45 47 45H23C18.5817 45 15 41.4183 15 37V13Z" fill="url(#paint0_linear_1104_8613)"/>
<path d="M49 39H21V11H49V39Z" stroke="#E5E7EB"/>
<path d="M39.666 29.6663L43.166 20.333L46.666 29.6663C45.651 30.4247 44.426 30.833 43.166 30.833C41.906 30.833 40.681 30.4247 39.666 29.6663Z" stroke="#E2E8F0" stroke-width="2.33333" stroke-linecap="round" stroke-linejoin="round"/>
<path d="M23.334 29.6663L26.834 20.333L30.334 29.6663C29.319 30.4247 28.094 30.833 26.834 30.833C25.574 30.833 24.349 30.4247 23.334 29.6663Z" stroke="#E2E8F0" stroke-width="2.33333" stroke-linecap="round" stroke-linejoin="round"/>
<path d="M29.166 35.5H40.8327" stroke="#E2E8F0" stroke-width="2.33333" stroke-linecap="round" stroke-linejoin="round"/>
<path d="M35 14.5V35.5" stroke="#E2E8F0" stroke-width="2.33333" stroke-linecap="round" stroke-linejoin="round"/>
<path d="M24.5 19.1663H26.8333C29.1667 19.1663 32.6667 17.9997 35 16.833C37.3333 17.9997 40.8333 19.1663 43.1667 19.1663H45.5" stroke="#E2E8F0" stroke-width="2.33333" stroke-linecap="round" stroke-linejoin="round"/>
</g>
<defs>
<filter id="filter0_dd_1104_8613" x="0" y="0" width="70" height="70" filterUnits="userSpaceOnUse" color-interpolation-filters="sRGB">
<feFlood flood-opacity="0" result="BackgroundImageFix"/>
<feColorMatrix in="SourceAlpha" type="matrix" values="0 0 0 0 0 0 0 0 0 0 0 0 0 0 0 0 0 0 127 0" result="hardAlpha"/>
<feOffset dy="10"/>
<feGaussianBlur stdDeviation="7.5"/>
<feColorMatrix type="matrix" values="0 0 0 0 0 0 0 0 0 0 0 0 0 0 0 0 0 0 0.1 0"/>
<feBlend mode="normal" in2="BackgroundImageFix" result="effect1_dropShadow_1104_8613"/>
<feColorMatrix in="SourceAlpha" type="matrix" values="0 0 0 0 0 0 0 0 0 0 0 0 0 0 0 0 0 0 127 0" result="hardAlpha"/>
<feOffset dy="4"/>
<feGaussianBlur stdDeviation="3"/>
<feColorMatrix type="matrix" values="0 0 0 0 0 0 0 0 0 0 0 0 0 0 0 0 0 0 0.1 0"/>
<feBlend mode="normal" in2="effect1_dropShadow_1104_8613" result="effect2_dropShadow_1104_8613"/>
<feBlend mode="normal" in="SourceGraphic" in2="effect2_dropShadow_1104_8613" result="shape"/>
</filter>
<linearGradient id="paint0_linear_1104_8613" x1="15" y1="25" x2="55" y2="25" gradientUnits="userSpaceOnUse">
<stop stop-color="#2DD4BF"/>
<stop offset="1" stop-color="#06B6D4"/>
</linearGradient>
</defs>
</svg>
